<?xml version="1.0" standalone="no"?>
<!DOCTYPE svg PUBLIC "-//W3C//DTD SVG 20010904//EN"
 "http://www.w3.org/TR/2001/REC-SVG-20010904/DTD/svg10.dtd">
<svg version="1.0" xmlns="http://www.w3.org/2000/svg"
 width="512.000000pt" height="512.000000pt" viewBox="0 0 512.000000 512.000000"
 preserveAspectRatio="xMidYMid meet">
<metadata>
Created by potrace 1.11, written by Peter Selinger 2001-2013
</metadata>
<g transform="translate(0.000000,512.000000) scale(0.100000,-0.100000)"
fill="#000000" stroke="none">
<path d="M0 2560 l0 -2560 2560 0 2560 0 0 2560 0 2560 -2560 0 -2560 0 0
-2560z m2491 1116 c41 -17 145 -79 169 -101 21 -19 54 -19 71 1 7 8 13 38 13
65 1 41 4 49 20 49 23 0 85 -45 154 -111 15 -14 35 -31 45 -36 25 -13 69 -114
111 -253 32 -107 35 -127 39 -290 5 -150 10 -193 37 -305 17 -71 36 -159 42
-195 12 -75 5 -277 -11 -293 -6 -6 -11 -20 -11 -32 0 -11 -11 -38 -25 -60 -34
-55 -84 -160 -105 -220 -58 -166 -162 -322 -330 -495 -131 -135 -258 -187
-431 -177 -107 7 -188 30 -283 81 -34 18 -78 38 -98 45 -21 7 -64 32 -96 55
-77 57 -261 239 -300 297 -17 26 -47 56 -65 67 -61 35 -123 137 -157 258 -15
51 -21 102 -22 197 -1 70 -7 183 -14 250 -16 148 -18 341 -4 332 5 -3 35 18
65 48 43 42 67 56 106 65 64 15 134 15 232 0 70 -10 79 -10 95 5 19 20 21 89
3 111 -16 19 -119 36 -217 36 -144 0 -244 -46 -281 -130 l-16 -35 -9 40 c-4
22 -12 67 -18 100 -5 33 -17 98 -27 145 -31 155 -16 219 73 305 63 61 153 91
319 105 72 6 168 15 214 20 46 4 97 6 115 3 170 -24 319 -63 440 -114 89 -38
107 -33 106 29 -3 167 -5 162 51 138z m959 -858 c24 -26 26 -38 6 -38 -20 0
-74 -68 -81 -102 -12 -54 -30 -32 -41 51 -8 61 1 102 20 95 8 -3 17 -1 21 5
11 18 53 12 75 -11z m48 -242 c-5 -130 -8 -146 -36 -208 -29 -64 -65 -99 -83
-81 -5 5 -4 43 2 88 5 44 14 123 18 175 5 52 12 104 16 115 7 23 65 65 79 57
5 -2 6 -68 4 -146z m-2390 -118 c6 -28 10 -53 9 -55 -2 -1 -20 15 -41 36 -35
35 -36 39 -21 55 27 27 40 19 53 -36z m3023 -90 c37 -13 68 -44 69 -69 0 -9
-20 -52 -45 -96 -25 -45 -54 -113 -65 -158 -20 -76 -20 -82 -4 -125 9 -25 20
-49 24 -55 3 -5 12 -29 20 -53 7 -23 19 -47 27 -53 7 -6 13 -16 13 -21 0 -5
18 -36 40 -68 22 -32 40 -63 40 -69 0 -5 6 -14 13 -18 7 -4 18 -19 25 -33 7
-14 21 -40 32 -58 66 -109 81 -253 36 -362 -64 -156 -158 -245 -328 -307 -221
-82 -390 -125 -487 -125 -85 0 -308 83 -360 134 -34 33 -43 84 -16 94 15 6 80
-13 185 -53 54 -21 79 -25 154 -24 50 1 92 4 95 6 9 10 -21 33 -61 45 -24 8
-65 29 -93 46 -27 18 -63 36 -80 40 -133 30 -254 86 -273 127 -15 31 -8 86 13
93 12 5 78 -14 225 -64 93 -32 217 -23 192 14 -16 24 -163 112 -192 114 -8 1
-64 22 -125 48 -88 38 -111 52 -119 73 -12 35 -1 76 27 94 21 14 34 12 143
-16 165 -44 180 -46 193 -21 17 32 -20 65 -114 103 -135 55 -195 103 -195 159
0 29 6 41 31 59 34 25 20 25 259 9 8 0 23 -8 33 -16 9 -8 17 -12 17 -7 0 4 6
2 13 -4 18 -15 164 -16 202 -1 50 19 113 77 126 117 7 24 10 65 5 117 -8 112
7 233 36 282 56 97 165 138 269 102z m-3042 -32 c6 -8 21 -47 32 -87 11 -39
29 -93 41 -118 11 -25 22 -64 25 -86 l4 -40 -31 35 c-28 32 -74 151 -100 259
-12 49 3 68 29 37z"/>
<path d="M2514 3216 c-45 -13 -97 -30 -116 -39 -18 -8 -46 -20 -61 -26 -54
-21 -61 -95 -11 -127 24 -16 29 -16 127 24 176 72 277 81 378 36 32 -15 65
-24 74 -21 46 18 -22 118 -107 157 -60 27 -177 25 -284 -4z"/>
<path d="M2384 2940 c-54 -27 -74 -50 -77 -86 -2 -26 1 -29 26 -26 32 4 33 -4
12 -93 -18 -76 -19 -156 -1 -180 12 -16 14 -10 18 52 6 80 36 141 98 197 58
52 95 68 181 73 60 5 88 2 128 -13 28 -10 51 -22 51 -26 0 -4 6 -8 13 -8 19 0
87 -78 99 -112 11 -32 28 -37 28 -8 0 28 -35 91 -67 121 -62 58 -210 108 -336
114 -29 1 -70 5 -92 9 -31 5 -50 2 -81 -14z"/>
<path d="M1614 2860 c-25 -10 -203 -147 -252 -193 -18 -18 -44 -55 -58 -84
-22 -47 -23 -58 -14 -93 6 -23 14 -38 19 -36 4 3 13 29 20 58 15 69 38 106 92
150 56 45 96 58 177 58 90 0 132 -15 190 -69 51 -47 112 -146 112 -181 0 -23
18 -26 45 -6 16 11 17 23 12 88 -3 42 -10 84 -16 94 -5 11 -18 42 -28 69 -19
54 -86 129 -129 145 -31 12 -141 12 -170 0z"/>
<path d="M2565 2831 c-73 -34 -105 -85 -105 -172 0 -53 16 -93 47 -122 18 -16
23 -16 64 -2 24 9 58 22 74 29 17 8 45 17 62 21 18 4 40 16 49 28 11 15 18 18
21 10 7 -20 31 -15 38 7 3 11 3 41 -1 66 -8 56 -51 109 -109 135 -50 23 -88
23 -140 0z m15 -75 c6 -8 10 -25 8 -38 -2 -18 -9 -23 -33 -23 -24 0 -31 5 -33
23 -4 25 13 52 33 52 7 0 18 -7 25 -14z"/>
<path d="M1555 2693 c-32 -9 -84 -53 -100 -87 -24 -46 -29 -106 -13 -144 l15
-33 116 -3 117 -4 25 29 c31 38 38 37 33 -6 -5 -46 14 -30 31 26 32 107 -44
220 -153 225 -28 2 -60 0 -71 -3z m13 -122 c-4 -33 -45 -42 -65 -15 -17 24
-17 30 8 55 20 20 21 20 40 3 12 -11 19 -28 17 -43z"/>
<path d="M1916 2158 c-41 -81 -5 -162 84 -189 131 -40 340 18 369 103 15 42
14 93 -2 106 -10 9 -18 1 -34 -38 -20 -47 -22 -49 -90 -69 -76 -23 -200 -28
-250 -11 -48 17 -80 89 -51 118 8 8 9 12 1 12 -6 0 -19 -14 -27 -32z"/>
<path d="M2672 2072 c-19 -13 -4 -39 26 -47 27 -7 26 -7 -13 -22 -74 -27 -209
-65 -355 -99 -111 -26 -193 -37 -349 -49 -112 -8 -207 -13 -210 -9 -3 3 -7 10
-7 15 -1 5 -2 14 -3 19 -2 16 -67 11 -82 -6 -16 -19 -1 -47 27 -53 10 -2 37
-22 59 -45 57 -58 202 -130 292 -146 73 -12 170 -7 248 11 97 24 250 115 327
195 62 64 73 81 89 133 12 39 14 41 26 25 12 -17 14 -16 38 6 30 28 32 55 6
70 -23 12 -101 13 -119 2z m-233 -251 c18 -12 -26 -25 -149 -45 -132 -22 -226
-27 -208 -12 18 17 81 37 126 41 82 8 157 17 161 21 8 7 56 4 70 -5z"/>
<path d="M2515 1683 c-16 -9 -32 -19 -35 -23 -3 -5 -27 -20 -54 -34 -27 -14
-54 -30 -60 -35 -25 -20 -122 -33 -198 -28 -80 5 -179 37 -292 94 -26 13 -50
22 -53 20 -9 -9 85 -80 152 -115 66 -35 76 -37 160 -37 133 1 240 32 336 97
25 18 53 42 62 55 21 27 21 27 -18 6z"/>
</g>
</svg>
